<!DOCTYPE svg PUBLIC "-//W3C//DTD SVG 1.1//EN" "http://www.w3.org/Graphics/SVG/1.1/DTD/svg11.dtd">
<!-- Uploaded to: SVG Repo, www.svgrepo.com, Transformed by: SVG Repo Mixer Tools -->
<svg width="800px" height="800px" viewBox="0 0 24 24" xmlns="http://www.w3.org/2000/svg" fill="#181E32">
<g id="SVGRepo_bgCarrier" stroke-width="0"/>
<g id="SVGRepo_tracerCarrier" stroke-linecap="round" stroke-linejoin="round"/>
<g id="SVGRepo_iconCarrier"> <g> <path fill="none" d="M0 0h24v24H0z"/> <path d="M7 2v20H3V2h4zm2 0h10.005C20.107 2 21 2.898 21 3.99v16.02c0 1.099-.893 1.99-1.995 1.99H9V2zm13 4h2v4h-2V6zm0 6h2v4h-2v-4zm-7 0a2 2 0 1 0 0-4 2 2 0 0 0 0 4zm-3 4h6a3 3 0 0 0-6 0z"/> </g> </g>
</svg>