<svg width="800" height="800" viewBox="0 0 800 800" fill="none" xmlns="http://www.w3.org/2000/svg">
<g clip-path="url(#clip0_17_29)">
<path d="M270.23 117V683.15H157V117H270.23ZM326.845 117H610.062C641.256 117 666.535 142.42 666.535 173.332V626.818C666.535 657.928 641.256 683.15 610.062 683.15H326.845V117ZM694.843 230.23H751.458V343.46H694.843V230.23ZM694.843 400.075H751.458V513.305H694.843V400.075ZM496.69 400.075C511.705 400.075 526.105 394.11 536.723 383.493C547.34 372.875 553.305 358.475 553.305 343.46C553.305 328.445 547.34 314.045 536.723 303.427C526.105 292.81 511.705 286.845 496.69 286.845C481.675 286.845 467.275 292.81 456.657 303.427C446.04 314.045 440.075 328.445 440.075 343.46C440.075 358.475 446.04 372.875 456.657 383.493C467.275 394.11 481.675 400.075 496.69 400.075ZM411.768 513.305H581.613C581.613 490.782 572.665 469.182 556.739 453.256C540.813 437.33 519.213 428.383 496.69 428.383C474.167 428.383 452.567 437.33 436.641 453.256C420.715 469.182 411.768 490.782 411.768 513.305Z" fill="white"/>
</g>
<defs>
<clipPath id="clip0_17_29">
<rect width="800" height="800" fill="white"/>
</clipPath>
</defs>
</svg>
