<svg width="800" height="800" viewBox="0 0 800 800" fill="none" xmlns="http://www.w3.org/2000/svg">
<path d="M401.728 159.968L644.759 431.528H683.15L401.346 117L273.629 257.767V179.906H210.724V327.27L117 431.528H155.954L401.728 159.968Z" fill="#181E32"/>
<path d="M401.284 205.561L195.474 432.611V683.15H601.501V431.528H603.83L401.284 205.561ZM313.996 548.824C310.204 553.763 306.952 559.157 304.199 564.964H258.894C258.894 517.308 280.286 497.23 310.092 490.667C295.341 482.012 285.429 465.766 285.429 447.428C285.429 419.904 307.741 397.473 335.265 397.473C354.686 397.473 371.501 408.56 379.724 424.755C345.252 433.789 319.741 465.203 319.741 502.472C319.741 513.957 322.236 525.147 326.832 535.349C322.072 539.333 317.829 543.828 313.996 548.824ZM374.903 545.947C360.153 537.293 350.239 521.046 350.239 502.708C350.239 475.184 372.551 452.634 400.075 452.634C427.599 452.634 449.912 474.944 449.912 502.47C449.912 520.814 439.992 537.304 425.232 545.959C455.047 552.516 476.446 572.589 476.446 620.244H323.706C323.706 572.589 345.096 552.51 374.903 545.947ZM495.949 564.964C493.196 559.156 489.941 553.759 486.143 548.818C482.308 543.826 478.04 539.335 473.288 535.356C477.884 525.15 480.396 513.959 480.396 502.47C480.396 464.584 454.039 432.763 418.699 424.337C426.987 408.316 443.699 397.355 462.981 397.355C490.505 397.355 512.817 419.665 512.817 447.191C512.817 465.535 502.897 482.026 488.137 490.68C517.953 497.237 539.352 517.31 539.352 564.966H495.949V564.964Z" fill="#181E32"/>
</svg>
