<svg width="50" height="50" viewBox="0 0 50 50" fill="none" xmlns="http://www.w3.org/2000/svg">
<path fill-rule="evenodd" clip-rule="evenodd" d="M25 48C37.7025 48 48 37.7025 48 25C48 12.2975 37.7025 2 25 2C12.2975 2 2 12.2975 2 25C2 37.7025 12.2975 48 25 48ZM17.7739 24.2548V24.2623L12 19.9948V17.9151C12 17.0432 12.358 16.258 12.9296 15.6921C13.7841 14.8492 15.1583 14.8145 16.1226 15.5305L17.6988 16.6968H17.7046L17.7739 16.7482V24.2548ZM32.786 24.2623V24.2548V16.7482L32.8553 16.6968L34.5158 15.471C35.4737 14.7637 36.8046 14.8624 37.6476 15.7037C38.2134 16.2695 38.5598 17.0548 38.5598 17.9151V19.9948L32.786 24.2623ZM24.937 29.5495L18.9287 25.1082V17.6016L25.2799 22.2975L31.6312 17.6016V25.1082L25.6235 29.5495C25.4197 29.7002 25.1408 29.7002 24.937 29.5495ZM32.786 34.4226V25.6977L38.5598 21.4296V33.5565C38.5598 34.3539 37.9137 35 37.1164 35H33.3634C33.0446 35 32.786 34.7413 32.786 34.4226ZM12 21.4296L17.7739 25.6977V34.4226C17.7739 34.7413 17.5152 35 17.1965 35H13.4435C12.6461 35 12 34.3539 12 33.5565V21.4296Z" fill="white"/>
</svg>
