<svg width="1920" height="1080" viewBox="0 0 1920 1080" fill="none" xmlns="http://www.w3.org/2000/svg">
<g clip-path="url(#clip0_11_2)">
<rect width="1920" height="1080" fill="#E8E8E8"/>
<line x1="120.5" x2="120.5" y2="1080" stroke="#BFBFBF"/>
<line x1="0.5" x2="0.5" y2="1080" stroke="#BFBFBF"/>
<line x1="1920" y1="120.5" x2="0.000114441" y2="120.5" stroke="#BFBFBF"/>
<line x1="1920" y1="240.5" x2="0.000114441" y2="240.5" stroke="#BFBFBF"/>
<line x1="1920" y1="360.5" x2="0.000114441" y2="360.5" stroke="#BFBFBF"/>
<line x1="1920" y1="480.5" x2="0.000114441" y2="480.5" stroke="#BFBFBF"/>
<line x1="1920" y1="0.5" x2="0.000114441" y2="0.5" stroke="#BFBFBF"/>
<line x1="1920" y1="600.5" x2="0.000114441" y2="600.5" stroke="#BFBFBF"/>
<line x1="1920" y1="720.5" x2="0.000114441" y2="720.5" stroke="#BFBFBF"/>
<line x1="1920" y1="840.5" x2="0.000114441" y2="840.5" stroke="#BFBFBF"/>
<line x1="1920" y1="960.5" x2="0.000114441" y2="960.5" stroke="#BFBFBF"/>
<line x1="240.5" x2="240.5" y2="1080" stroke="#BFBFBF"/>
<line x1="360.5" x2="360.5" y2="1080" stroke="#BFBFBF"/>
<line x1="480.5" x2="480.5" y2="1080" stroke="#BFBFBF"/>
<line x1="600.5" x2="600.5" y2="1080" stroke="#BFBFBF"/>
<line x1="720.5" x2="720.5" y2="1080" stroke="#BFBFBF"/>
<line x1="840.5" x2="840.5" y2="1080" stroke="#BFBFBF"/>
<line x1="960.5" x2="960.5" y2="1080" stroke="#BFBFBF"/>
<line x1="1080.5" x2="1080.5" y2="1080" stroke="#BFBFBF"/>
<line x1="1200.5" x2="1200.5" y2="1080" stroke="#BFBFBF"/>
<line x1="1320.5" x2="1320.5" y2="1080" stroke="#BFBFBF"/>
<line x1="1440.5" x2="1440.5" y2="1080" stroke="#BFBFBF"/>
<line x1="1560.5" x2="1560.5" y2="1080" stroke="#BFBFBF"/>
<line x1="1680.5" x2="1680.5" y2="1080" stroke="#BFBFBF"/>
<line x1="1800.5" x2="1800.5" y2="1080" stroke="#BFBFBF"/>
</g>
<defs>
<clipPath id="clip0_11_2">
<rect width="1920" height="1080" fill="white"/>
</clipPath>
</defs>
</svg>
