<svg width="800" height="800" viewBox="0 0 800 800" fill="none" xmlns="http://www.w3.org/2000/svg">
<path d="M311.538 223.153V555.766C297.384 548.689 279.692 541.613 258.461 541.613C208.923 541.613 170 573.458 170 612.381C170 651.304 208.923 683.15 258.461 683.15C307.999 683.15 346.922 651.304 346.922 612.381V354.075L594.613 272.691V453.152C580.459 442.536 562.767 435.459 541.536 435.459C491.998 435.459 453.075 467.305 453.075 506.228C453.075 545.151 491.998 576.997 541.536 576.997C591.074 576.997 629.997 545.151 629.997 506.228V117L311.538 223.153Z" fill="white"/>
</svg>
