<svg width="50" height="50" viewBox="0 0 50 50" fill="none" xmlns="http://www.w3.org/2000/svg">
<path fill-rule="evenodd" clip-rule="evenodd" d="M25 48C37.7025 48 48 37.7025 48 25C48 12.2975 37.7025 2 25 2C12.2975 2 2 12.2975 2 25C2 37.7025 12.2975 48 25 48ZM12 17.4327C12 14.4387 14.4387 12 17.4327 12H33.1273C36.1213 12 38.56 14.4387 38.56 17.4327V33.1273C38.56 36.1213 36.1213 38.56 33.1273 38.56H17.4327C14.4387 38.56 12 36.1213 12 33.1273V17.4327ZM34.9382 15.0182H33.1273C32.7953 15.0182 32.5236 15.2898 32.5236 15.6218V17.4327C32.5236 17.7647 32.7953 18.0364 33.1273 18.0364H34.9382C35.2702 18.0364 35.5418 17.7647 35.5418 17.4327V15.6218C35.5418 15.2898 35.2702 15.0182 34.9382 15.0182ZM32.9339 20.4509C31.3282 17.9156 28.4974 16.2255 25.28 16.2255C22.0626 16.2255 19.2318 17.9156 17.6261 20.4509H15.0182V32.5236C15.0182 34.1897 16.3703 35.5418 18.0364 35.5418H32.5236C34.1897 35.5418 35.5418 34.1897 35.5418 32.5236V20.4509H32.9339ZM17.4327 25.28C17.4327 20.9519 20.9519 17.4327 25.28 17.4327C29.6081 17.4327 33.1273 20.9519 33.1273 25.28C33.1273 29.6081 29.6081 33.1273 25.28 33.1273C20.9519 33.1273 17.4327 29.6081 17.4327 25.28ZM30.7127 25.28C30.7127 22.286 28.274 19.8473 25.28 19.8473C22.286 19.8473 19.8473 22.286 19.8473 25.28C19.8473 28.274 22.286 30.7127 25.28 30.7127C28.274 30.7127 30.7127 28.274 30.7127 25.28Z" fill="white"/>
</svg>
