<svg width="50" height="50" viewBox="0 0 50 50" fill="none" xmlns="http://www.w3.org/2000/svg">
<path fill-rule="evenodd" clip-rule="evenodd" d="M25 48C37.7025 48 48 37.7025 48 25C48 12.2975 37.7025 2 25 2C12.2975 2 2 12.2975 2 25C2 37.7025 12.2975 48 25 48ZM35.374 15.7495C36.751 16.062 37.9375 17.063 38.1865 18.4375C38.499 20 38.8115 22.1875 38.9385 25C38.875 27.749 38.5625 30 38.3135 31.5625C38.062 33.0005 36.8755 33.938 35.501 34.2505C33.3135 34.6875 29.5635 35 25.4375 35C21.3115 35 17.5615 34.6875 15.374 34.2505C13.9995 33.938 12.813 32.937 12.5615 31.5625C12.249 30 12 27.8125 12 25C12 22.1875 12.249 20 12.5005 18.4375C12.7495 16.9995 13.9385 16.062 15.313 15.7495C17.376 15.3125 21.2505 15 25.374 15C29.5 15 33.3135 15.3125 35.374 15.7495ZM29.6245 25L22 20.625V29.375L29.6245 25Z" fill="white"/>
</svg>
